<svg width="32" height="32" viewBox="0 0 32 32" fill="none" xmlns="http://www.w3.org/2000/svg">
<rect x="0.5" y="0.5" width="31" height="31" rx="5.5" stroke="#E4E5E7"/>
<path fill-rule="evenodd" clip-rule="evenodd" d="M11.1814 11.1814C10.9395 11.4234 10.9395 11.8156 11.1814 12.0575L15.1239 16L11.1814 19.9425C10.9395 20.1844 10.9395 20.5766 11.1814 20.8186C11.4234 21.0605 11.8156 21.0605 12.0575 20.8186L16 16.8761L19.9425 20.8186C20.1844 21.0605 20.5766 21.0605 20.8186 20.8186C21.0605 20.5766 21.0605 20.1844 20.8186 19.9425L16.8761 16L20.8186 12.0575C21.0605 11.8156 21.0605 11.4234 20.8186 11.1814C20.5766 10.9395 20.1844 10.9395 19.9425 11.1814L16 15.1239L12.0575 11.1814C11.8156 10.9395 11.4234 10.9395 11.1814 11.1814Z" fill="#222222"/>
</svg>
